<svg data-v-423bf9ae="" xmlns="http://www.w3.org/2000/svg" viewBox="0 0 267 90" class="iconLeftSlogan"><!----><!----><!----><g data-v-423bf9ae="" id="e78f2050-20d3-40e4-9d8e-debaa338dbf2" fill="white" transform="matrix(5.385996243345147,0,0,5.385996243345147,136.7902006264971,-15.080789939797839)"><path d="M1.80 13.78L3.48 4.29L1.09 4.29L1.35 2.80L7.83 2.80L7.57 4.29L5.19 4.29L3.51 13.78L1.80 13.78ZM12.30 13.78L12.20 11.52L8.92 11.52L8.00 13.78L6.22 13.78L10.95 2.80L13.19 2.80L14.05 13.78L12.30 13.78ZM9.49 10.12L12.13 10.12L11.88 4.99L11.91 4.12L11.86 4.12L11.57 4.99L9.49 10.12ZM18.72 13.94L18.72 13.94Q17.25 13.94 16.50 13.25L16.50 13.25L16.50 13.25Q15.74 12.56 15.74 11.28L15.74 11.28L15.74 11.28Q15.74 10.82 15.83 10.34L15.83 10.34L17.16 2.80L18.88 2.80L17.53 10.51L17.53 10.51Q17.46 10.92 17.46 11.18L17.46 11.18L17.46 11.18Q17.46 12.51 18.77 12.51L18.77 12.51L18.77 12.51Q19.63 12.51 20.20 11.97L20.20 11.97L20.20 11.97Q20.77 11.43 20.96 10.40L20.96 10.40L22.30 2.80L24.02 2.80L22.69 10.37L22.69 10.37Q22.38 12.13 21.38 13.03L21.38 13.03L21.38 13.03Q20.38 13.94 18.72 13.94L18.72 13.94Z"></path></g><!----><g data-v-423bf9ae="" id="6c53a490-5bcb-4ed3-b827-68dd43b14608" transform="matrix(1.2266092248157614,0,0,1.2266092248157614,4.331912920276757,12.203548096921786)" stroke="none" fill="white"><path d="M29.221 36.085c0-15.61 16.253-28.314 36.232-28.314 5.447 0 10.613.947 15.254 2.644C74.014-1.436 58.609-9.724 40.669-9.724c-24.077 0-43.592 14.926-43.592 33.339 0 9.31 4.993 17.72 13.032 23.767l-3.183 15.47 14.345-9.385c5.846 2.231 12.427 3.487 19.398 3.487.108 0 .216-.009.323-.009-7.228-5.175-11.771-12.609-11.771-20.86z"></path><path d="M97.077 36.085c0-12.788-13.951-23.195-31.108-23.195S34.852 23.297 34.852 36.085c0 12.789 13.96 23.195 31.117 23.195 3.91 0 7.74-.553 11.392-1.631l9.947 6-1.472-9.778c7.153-4.444 11.241-10.876 11.241-17.786z"></path></g><!----><g data-v-423bf9ae="" id="45ad4714-2c66-4a7e-91d3-97489c10d6b8" fill="white" transform="matrix(0.36410807183424027,0,0,0.36410807183424027,142.4279040127181,57.93186519228451)"><path d="M0.64 15.68L0.64 5.88L2.88 5.88L4.20 15.18L4.37 15.18L5.68 5.88L7.92 5.88L7.92 15.68L6.83 15.68L6.83 6.38L6.66 6.38L5.35 15.68L3.22 15.68L1.90 6.38L1.74 6.38L1.74 15.68L0.64 15.68ZM16.88 15.68L16.88 5.88L22.82 5.88L22.82 6.97L18.06 6.97L18.06 10.22L22.74 10.22L22.74 11.31L18.06 11.31L18.06 14.59L22.90 14.59L22.90 15.68L16.88 15.68ZM32.45 15.68L32.45 5.88L38.39 5.88L38.39 6.97L33.63 6.97L33.63 10.22L38.30 10.22L38.30 11.31L33.63 11.31L33.63 14.59L38.47 14.59L38.47 15.68L32.45 15.68ZM47.54 6.97L47.54 5.88L54.43 5.88L54.43 6.97L51.58 6.97L51.58 15.68L50.40 15.68L50.40 6.97L47.54 6.97ZM81.54 15.68L81.54 12.24L81.28 12.24L78.22 5.88L79.53 5.88L82.04 11.23L82.21 11.23L84.71 5.88L86.03 5.88L82.96 12.24L82.71 12.24L82.71 15.68L81.54 15.68ZM94.25 11.87L94.25 9.69L94.25 9.69Q94.25 7.78 95.16 6.73L95.16 6.73L95.16 6.73Q96.07 5.68 97.69 5.68L97.69 5.68L97.69 5.68Q99.32 5.68 100.23 6.73L100.23 6.73L100.23 6.73Q101.14 7.78 101.14 9.69L101.14 9.69L101.14 11.87L101.14 11.87Q101.14 13.83 100.23 14.85L100.23 14.85L100.23 14.85Q99.32 15.88 97.69 15.88L97.69 15.88L97.69 15.88Q96.07 15.88 95.16 14.85L95.16 14.85L95.16 14.85Q94.25 13.83 94.25 11.87L94.25 11.87ZM97.69 14.78L97.69 14.78L97.69 14.78Q98.83 14.78 99.39 14.01L99.39 14.01L99.39 14.01Q99.96 13.23 99.96 11.79L99.96 11.79L99.96 9.77L99.96 9.77Q99.96 8.43 99.39 7.60L99.39 7.60L99.39 7.60Q98.83 6.78 97.69 6.78L97.69 6.78L97.69 6.78Q96.56 6.78 95.99 7.60L95.99 7.60L95.99 7.60Q95.42 8.43 95.42 9.77L95.42 9.77L95.42 11.79L95.42 11.79Q95.42 13.23 95.99 14.01L95.99 14.01L95.99 14.01Q96.56 14.78 97.69 14.78ZM109.90 5.88L111.08 5.88L111.08 12.38L111.08 12.38Q111.08 13.57 111.63 14.17L111.63 14.17L111.63 14.17Q112.18 14.78 113.26 14.78L113.26 14.78L113.26 14.78Q114.34 14.78 114.89 14.17L114.89 14.17L114.89 14.17Q115.44 13.57 115.44 12.38L115.44 12.38L115.44 5.88L116.62 5.88L116.62 12.38L116.62 12.38Q116.62 14.08 115.72 14.98L115.72 14.98L115.72 14.98Q114.83 15.88 113.26 15.88L113.26 15.88L113.26 15.88Q111.69 15.88 110.80 14.98L110.80 14.98L110.80 14.98Q109.90 14.08 109.90 12.38L109.90 12.38L109.90 5.88ZM131.89 12.15L131.89 15.68L130.72 15.68L130.72 12.40L130.72 12.40Q130.72 12.04 130.55 11.84L130.55 11.84L130.55 11.84Q130.38 11.65 129.96 11.65L129.96 11.65L126.91 11.65L126.91 15.68L125.73 15.68L125.73 5.88L129.23 5.88L129.23 5.88Q129.99 5.88 130.55 6.10L130.55 6.10L130.55 6.10Q131.11 6.31 131.48 6.68L131.48 6.68L131.48 6.68Q131.85 7.04 132.04 7.53L132.04 7.53L132.04 7.53Q132.23 8.01 132.23 8.54L132.23 8.54L132.23 8.96L132.23 8.96Q132.23 9.51 131.93 10.05L131.93 10.05L131.93 10.05Q131.63 10.60 131.00 10.89L131.00 10.89L131.00 11.06L131.00 11.06Q131.42 11.13 131.66 11.40L131.66 11.40L131.66 11.40Q131.89 11.66 131.89 12.15L131.89 12.15ZM126.91 6.97L126.91 10.56L129.09 10.56L129.09 10.56Q130.09 10.56 130.57 10.13L130.57 10.13L130.57 10.13Q131.05 9.70 131.05 8.88L131.05 8.88L131.05 8.62L131.05 8.62Q131.05 7.88 130.57 7.43L130.57 7.43L130.57 7.43Q130.09 6.97 129.09 6.97L129.09 6.97L126.91 6.97ZM162.27 9.21L162.27 8.71L162.27 8.71Q162.27 8.23 162.09 7.87L162.09 7.87L162.09 7.87Q161.90 7.50 161.57 7.27L161.57 7.27L161.57 7.27Q161.25 7.03 160.83 6.90L160.83 6.90L160.83 6.90Q160.41 6.78 159.95 6.78L159.95 6.78L159.95 6.78Q159.54 6.78 159.18 6.88L159.18 6.88L159.18 6.88Q158.82 6.99 158.53 7.18L158.53 7.18L158.53 7.18Q158.24 7.38 158.07 7.66L158.07 7.66L158.07 7.66Q157.91 7.95 157.91 8.33L157.91 8.33L157.91 8.41L157.91 8.41Q157.91 8.82 158.07 9.11L158.07 9.11L158.07 9.11Q158.24 9.39 158.57 9.60L158.57 9.60L158.57 9.60Q158.90 9.80 159.39 9.93L159.39 9.93L159.39 9.93Q159.88 10.07 160.54 10.16L160.54 10.16L160.54 10.16Q162.08 10.40 162.81 11.07L162.81 11.07L162.81 11.07Q163.53 11.73 163.53 12.85L163.53 12.85L163.53 13.02L163.53 13.02Q163.53 13.65 163.32 14.17L163.32 14.17L163.32 14.17Q163.10 14.70 162.67 15.08L162.67 15.08L162.67 15.08Q162.25 15.46 161.62 15.67L161.62 15.67L161.62 15.67Q160.99 15.88 160.16 15.88L160.16 15.88L160.16 15.88Q159.22 15.88 158.50 15.60L158.50 15.60L158.50 15.60Q157.78 15.33 157.30 14.85L157.30 14.85L157.30 14.85Q156.81 14.36 156.56 13.71L156.56 13.71L156.56 13.71Q156.31 13.06 156.31 12.29L156.31 12.29L156.31 11.87L157.49 11.87L157.49 12.21L157.49 12.21Q157.49 13.50 158.19 14.14L158.19 14.14L158.19 14.14Q158.90 14.78 160.16 14.78L160.16 14.78L160.16 14.78Q161.25 14.78 161.81 14.30L161.81 14.30L161.81 14.30Q162.36 13.82 162.36 13.02L162.36 13.02L162.36 12.94L162.36 12.94Q162.36 12.17 161.79 11.76L161.79 11.76L161.79 11.76Q161.22 11.35 159.95 11.17L159.95 11.17L159.95 11.17Q159.21 11.07 158.61 10.87L158.61 10.87L158.61 10.87Q158.02 10.67 157.60 10.34L157.60 10.34L157.60 10.34Q157.18 10.01 156.95 9.55L156.95 9.55L156.95 9.55Q156.73 9.09 156.73 8.46L156.73 8.46L156.73 8.29L156.73 8.29Q156.73 7.71 156.97 7.24L156.97 7.24L156.97 7.24Q157.21 6.76 157.63 6.41L157.63 6.41L157.63 6.41Q158.06 6.06 158.66 5.87L158.66 5.87L158.66 5.87Q159.25 5.68 159.96 5.68L159.96 5.68L159.96 5.68Q160.79 5.68 161.44 5.92L161.44 5.92L161.44 5.92Q162.09 6.16 162.54 6.56L162.54 6.56L162.54 6.56Q162.99 6.96 163.22 7.50L163.22 7.50L163.22 7.50Q163.45 8.04 163.45 8.62L163.45 8.62L163.45 9.21L162.27 9.21ZM172.09 11.87L172.09 9.69L172.09 9.69Q172.09 7.78 173.00 6.73L173.00 6.73L173.00 6.73Q173.91 5.68 175.53 5.68L175.53 5.68L175.53 5.68Q177.16 5.68 178.07 6.73L178.07 6.73L178.07 6.73Q178.98 7.78 178.98 9.69L178.98 9.69L178.98 11.87L178.98 11.87Q178.98 13.83 178.07 14.85L178.07 14.85L178.07 14.85Q177.16 15.88 175.53 15.88L175.53 15.88L175.53 15.88Q173.91 15.88 173.00 14.85L173.00 14.85L173.00 14.85Q172.09 13.83 172.09 11.87L172.09 11.87ZM175.53 14.78L175.53 14.78L175.53 14.78Q176.67 14.78 177.23 14.01L177.23 14.01L177.23 14.01Q177.80 13.23 177.80 11.79L177.80 11.79L177.80 9.77L177.80 9.77Q177.80 8.43 177.23 7.60L177.23 7.60L177.23 7.60Q176.67 6.78 175.53 6.78L175.53 6.78L175.53 6.78Q174.40 6.78 173.83 7.60L173.83 7.60L173.83 7.60Q173.26 8.43 173.26 9.77L173.26 9.77L173.26 11.79L173.26 11.79Q173.26 13.23 173.83 14.01L173.83 14.01L173.83 14.01Q174.40 14.78 175.53 14.78ZM187.74 5.88L188.92 5.88L188.92 12.38L188.92 12.38Q188.92 13.57 189.47 14.17L189.47 14.17L189.47 14.17Q190.02 14.78 191.10 14.78L191.10 14.78L191.10 14.78Q192.18 14.78 192.73 14.17L192.73 14.17L192.73 14.17Q193.28 13.57 193.28 12.38L193.28 12.38L193.28 5.88L194.46 5.88L194.46 12.38L194.46 12.38Q194.46 14.08 193.56 14.98L193.56 14.98L193.56 14.98Q192.67 15.88 191.10 15.88L191.10 15.88L191.10 15.88Q189.53 15.88 188.64 14.98L188.64 14.98L188.64 14.98Q187.74 14.08 187.74 12.38L187.74 12.38L187.74 5.88ZM203.60 15.68L203.60 5.88L204.78 5.88L204.78 14.59L209.90 14.59L209.90 15.68L203.60 15.68ZM218.60 15.68L218.60 5.88L220.84 5.88L222.15 15.18L222.32 15.18L223.64 5.88L225.88 5.88L225.88 15.68L224.78 15.68L224.78 6.38L224.62 6.38L223.30 15.68L221.17 15.68L219.86 6.38L219.69 6.38L219.69 15.68L218.60 15.68ZM240.62 15.68L239.90 13.24L235.70 13.24L234.99 15.68L233.73 15.68L236.70 5.88L238.91 5.88L241.88 15.68L240.62 15.68ZM237.89 6.38L237.72 6.38L236.03 12.15L239.58 12.15L237.89 6.38ZM249.93 6.97L249.93 5.88L256.82 5.88L256.82 6.97L253.96 6.97L253.96 15.68L252.78 15.68L252.78 6.97L249.93 6.97ZM265.97 15.68L265.97 5.88L271.91 5.88L271.91 6.97L267.15 6.97L267.15 10.22L271.82 10.22L271.82 11.31L267.15 11.31L267.15 14.59L271.99 14.59L271.99 15.68L265.97 15.68Z"></path></g></svg>